<?xml version="1.0" encoding="utf-8"?>
<!-- Generator: Adobe Illustrator 26.0.1, SVG Export Plug-In . SVG Version: 6.00 Build 0)  -->
<svg version="1.1" id="Layer_1" xmlns="http://www.w3.org/2000/svg" xmlns:xlink="http://www.w3.org/1999/xlink" x="0px" y="0px"
	 viewBox="0 0 612 792" style="enable-background:new 0 0 612 792;" xml:space="preserve">
<style type="text/css">
	.st0{opacity:0.05;}
	.st1{fill:#27AAE1;stroke:#939598;stroke-width:2;stroke-miterlimit:10;}
	.st2{font-family:'Seravek-Bold';}
	.st3{font-size:8.0874px;}
	.st4{letter-spacing:2;}
	.st5{font-size:10px;}
	.st6{letter-spacing:3;}
	.st7{font-size:6px;}
	.st8{opacity:0.5;fill:#00AEEF;stroke:#939598;stroke-width:2;stroke-miterlimit:10;}
	.st9{opacity:0.6;fill:#00A651;stroke:#939598;stroke-width:2;stroke-miterlimit:10;}
	.st10{opacity:0.7;fill:#7F3F98;stroke:#662D91;stroke-width:3;stroke-miterlimit:10;}
	.st11{opacity:0.4;}
	.st12{fill:#7F3F98;stroke:#662D91;stroke-width:3;stroke-miterlimit:10;}
	.st13{fill:none;stroke:#662D91;stroke-width:3;stroke-linecap:round;stroke-miterlimit:10;}
	.st14{fill:none;stroke:#662D91;stroke-width:2;stroke-linejoin:round;}
	.st15{fill:#662D91;}
	.st16{fill:none;}
	.st17{font-family:'Seravek-Medium';}
	.st18{fill:#BE1E2D;stroke:#9E1F63;stroke-width:3;stroke-miterlimit:10;}
</style>
<rect x="221.15" y="40.5" class="st0" width="146.85" height="142.11"/>
<rect x="221.15" y="193.94" class="st0" width="146.85" height="109.86"/>
<rect x="60.6" y="40.5" class="st0" width="146.85" height="142.11"/>
<path class="st1" d="M107.35,83.6H69.47c-1.58,0-2.85-1.28-2.85-2.85v-8.54c0-1.58,1.28-2.85,2.85-2.85h37.89
	c1.58,0,2.85,1.28,2.85,2.85v8.54C110.21,82.32,108.93,83.6,107.35,83.6z"/>
<path class="st1" d="M107.35,91.45H69.47c-1.58,0-2.85-1.28-2.85-2.85v-8.54c0-1.58,1.28-2.85,2.85-2.85h37.89
	c1.58,0,2.85,1.28,2.85,2.85v8.54C110.21,90.17,108.93,91.45,107.35,91.45z"/>
<path class="st1" d="M107.35,99.3H69.47c-1.58,0-2.85-1.28-2.85-2.85V87.9c0-1.58,1.28-2.85,2.85-2.85h37.89
	c1.58,0,2.85,1.28,2.85,2.85v8.54C110.21,98.02,108.93,99.3,107.35,99.3z"/>
<path class="st1" d="M107.35,107.14H69.47c-1.58,0-2.85-1.28-2.85-2.85v-8.54c0-1.58,1.28-2.85,2.85-2.85h37.89
	c1.58,0,2.85,1.28,2.85,2.85v8.54C110.21,105.87,108.93,107.14,107.35,107.14z"/>
<path class="st1" d="M107.35,114.99H69.47c-1.58,0-2.85-1.28-2.85-2.85v-8.54c0-1.58,1.28-2.85,2.85-2.85h37.89
	c1.58,0,2.85,1.28,2.85,2.85v8.54C110.21,113.72,108.93,114.99,107.35,114.99z"/>
<path class="st1" d="M107.35,122.84H69.47c-1.58,0-2.85-1.28-2.85-2.85v-8.54c0-1.58,1.28-2.85,2.85-2.85h37.89
	c1.58,0,2.85,1.28,2.85,2.85v8.54C110.21,121.56,108.93,122.84,107.35,122.84z"/>
<text transform="matrix(1 0 0 1 93.4646 51.1946)" class="st2 st3 st4">Task Queue</text>
<text transform="matrix(1 0 0 1 77.5562 244.2951)" class="st2 st5 st6">Motif search</text>
<text transform="matrix(1 0 0 1 77.7115 253.4414)" class="st2 st7 st4">Cloud architecture</text>
<text transform="matrix(1 0 0 1 254.0173 51.1946)" class="st2 st3 st4">Worker Pool</text>
<text transform="matrix(1 0 0 1 264.2008 208.0206)" class="st2 st3 st4">database</text>
<path class="st1" d="M107.35,130.69H69.47c-1.58,0-2.85-1.28-2.85-2.85v-8.54c0-1.58,1.28-2.85,2.85-2.85h37.89
	c1.58,0,2.85,1.28,2.85,2.85v8.54C110.21,129.41,108.93,130.69,107.35,130.69z"/>
<path class="st1" d="M107.35,138.54H69.47c-1.58,0-2.85-1.28-2.85-2.85v-8.54c0-1.58,1.28-2.85,2.85-2.85h37.89
	c1.58,0,2.85,1.28,2.85,2.85v8.54C110.21,137.26,108.93,138.54,107.35,138.54z"/>
<path class="st8" d="M251.17,159.17h-37.89c-1.58,0-2.85-1.28-2.85-2.85v-8.54c0-1.58,1.28-2.85,2.85-2.85h37.89
	c1.58,0,2.85,1.28,2.85,2.85v8.54C254.02,157.89,252.74,159.17,251.17,159.17z"/>
<path class="st9" d="M342.85,228.29h-37.89c-1.58,0-2.85-1.28-2.85-2.85v-8.54c0-1.58,1.28-2.85,2.85-2.85h37.89
	c1.58,0,2.85,1.28,2.85,2.85v8.54C345.7,227.01,344.43,228.29,342.85,228.29z"/>
<path class="st8" d="M146.5,72.2h-37.89c-1.58,0-2.85-1.28-2.85-2.85V60.8c0-1.58,1.28-2.85,2.85-2.85h37.89
	c1.58,0,2.85,1.28,2.85,2.85v8.54C149.36,70.92,148.08,72.2,146.5,72.2z"/>
<g>
	<path class="st10" d="M296.8,159.17h-17.36c-2.78,0-5.04-2.26-5.04-5.04v-17.36c0-2.78,2.26-5.04,5.04-5.04h17.36
		c2.78,0,5.04,2.26,5.04,5.04v17.36C301.84,156.91,299.58,159.17,296.8,159.17z"/>
	<g class="st11">
		<path class="st12" d="M288.81,151.18h-1.39c-2.78,0-5.04-2.26-5.04-5.04v-1.39c0-2.78,2.26-5.04,5.04-5.04h1.39
			c2.78,0,5.04,2.26,5.04,5.04v1.39C293.85,148.93,291.6,151.18,288.81,151.18z"/>
		<line class="st13" x1="284.45" y1="136.65" x2="284.45" y2="139.72"/>
		<line class="st13" x1="288.13" y1="136.65" x2="288.13" y2="139.72"/>
		<line class="st13" x1="291.81" y1="136.65" x2="291.81" y2="139.72"/>
		<line class="st13" x1="284.45" y1="151.18" x2="284.45" y2="154.25"/>
		<line class="st13" x1="288.13" y1="151.18" x2="288.13" y2="154.25"/>
		<line class="st13" x1="291.81" y1="151.18" x2="291.81" y2="154.25"/>
		<line class="st13" x1="296.92" y1="141.77" x2="293.86" y2="141.77"/>
		<line class="st13" x1="296.92" y1="145.45" x2="293.86" y2="145.45"/>
		<line class="st13" x1="296.92" y1="149.13" x2="293.86" y2="149.13"/>
		<line class="st13" x1="282.39" y1="141.77" x2="279.33" y2="141.77"/>
		<line class="st13" x1="282.39" y1="145.45" x2="279.33" y2="145.45"/>
		<line class="st13" x1="282.39" y1="149.13" x2="279.33" y2="149.13"/>
	</g>
</g>
<g>
	<path class="st10" d="M340.1,108.6h-17.36c-2.78,0-5.04-2.26-5.04-5.04V86.19c0-2.78,2.26-5.04,5.04-5.04h17.36
		c2.78,0,5.04,2.26,5.04,5.04v17.36C345.14,106.34,342.88,108.6,340.1,108.6z"/>
	<g class="st11">
		<path class="st12" d="M332.11,100.61h-1.39c-2.78,0-5.04-2.26-5.04-5.04v-1.39c0-2.78,2.26-5.04,5.04-5.04h1.39
			c2.78,0,5.04,2.26,5.04,5.04v1.39C337.15,98.35,334.89,100.61,332.11,100.61z"/>
		<line class="st13" x1="327.74" y1="86.08" x2="327.74" y2="89.14"/>
		<line class="st13" x1="331.42" y1="86.08" x2="331.42" y2="89.14"/>
		<line class="st13" x1="335.1" y1="86.08" x2="335.1" y2="89.14"/>
		<line class="st13" x1="327.74" y1="100.61" x2="327.74" y2="103.67"/>
		<line class="st13" x1="331.42" y1="100.61" x2="331.42" y2="103.67"/>
		<line class="st13" x1="335.1" y1="100.61" x2="335.1" y2="103.67"/>
		<line class="st13" x1="340.22" y1="91.2" x2="337.16" y2="91.2"/>
		<line class="st13" x1="340.22" y1="94.88" x2="337.16" y2="94.88"/>
		<line class="st13" x1="340.22" y1="98.56" x2="337.16" y2="98.56"/>
		<line class="st13" x1="325.69" y1="91.2" x2="322.63" y2="91.2"/>
		<line class="st13" x1="325.69" y1="94.88" x2="322.63" y2="94.88"/>
		<line class="st13" x1="325.69" y1="98.56" x2="322.63" y2="98.56"/>
	</g>
</g>
<g>
	<path class="st10" d="M254.63,138.02h-17.36c-2.78,0-5.04-2.26-5.04-5.04v-17.36c0-2.78,2.26-5.04,5.04-5.04h17.36
		c2.78,0,5.04,2.26,5.04,5.04v17.36C259.66,135.76,257.41,138.02,254.63,138.02z"/>
	<g class="st11">
		<path class="st12" d="M246.64,130.03h-1.39c-2.78,0-5.04-2.26-5.04-5.04v-1.39c0-2.78,2.26-5.04,5.04-5.04h1.39
			c2.78,0,5.04,2.26,5.04,5.04v1.39C251.68,127.77,249.42,130.03,246.64,130.03z"/>
		<line class="st13" x1="242.27" y1="115.5" x2="242.27" y2="118.56"/>
		<line class="st13" x1="245.95" y1="115.5" x2="245.95" y2="118.56"/>
		<line class="st13" x1="249.63" y1="115.5" x2="249.63" y2="118.56"/>
		<line class="st13" x1="242.27" y1="130.03" x2="242.27" y2="133.09"/>
		<line class="st13" x1="245.95" y1="130.03" x2="245.95" y2="133.09"/>
		<line class="st13" x1="249.63" y1="130.03" x2="249.63" y2="133.09"/>
		<line class="st13" x1="254.75" y1="120.61" x2="251.68" y2="120.61"/>
		<line class="st13" x1="254.75" y1="124.29" x2="251.68" y2="124.29"/>
		<line class="st13" x1="254.75" y1="127.97" x2="251.68" y2="127.97"/>
		<line class="st13" x1="240.22" y1="120.61" x2="237.15" y2="120.61"/>
		<line class="st13" x1="240.22" y1="124.29" x2="237.15" y2="124.29"/>
		<line class="st13" x1="240.22" y1="127.97" x2="237.15" y2="127.97"/>
	</g>
</g>
<g>
	<g>
		<polyline class="st14" points="88.41,144.55 88.41,152.05 217.65,152.05 		"/>
		<g>
			<path class="st15" d="M215.49,152.05l-2.63-4.32l0.15-0.1l7.05,2.8c2.46,0.54,4.91,1.08,7.37,1.62
				c-2.46,0.54-4.91,1.08-7.37,1.62l-7.05,2.8l-0.15-0.07L215.49,152.05z"/>
		</g>
	</g>
</g>
<g>
	<g>
		<polyline class="st14" points="331.42,78.01 331.42,65.07 139.56,65.07 		"/>
		<g>
			<path class="st15" d="M141.71,65.07l2.63,4.32l-0.15,0.1l-7.05-2.8c-2.46-0.54-4.91-1.08-7.37-1.62
				c2.46-0.54,4.91-1.08,7.37-1.62l7.05-2.8l0.15,0.07L141.71,65.07z"/>
		</g>
	</g>
</g>
<rect x="135.73" y="77.93" class="st16" width="63.95" height="14"/>
<text transform="matrix(1 0 0 1 135.7309 82.9266)"><tspan x="0" y="0" class="st17 st7">Workers submit new  </tspan><tspan x="0" y="7.2" class="st17 st7">candidate mappings</tspan></text>
<rect x="237.45" y="77.93" class="st16" width="68.55" height="28.28"/>
<text transform="matrix(1 0 0 1 237.4516 82.9268)"><tspan x="0" y="0" class="st17 st7">Worker pool can be </tspan><tspan x="0" y="7.2" class="st17 st7">scaled up and down to </tspan><tspan x="0" y="14.4" class="st17 st7">arbitrary size in order to </tspan><tspan x="0" y="21.6" class="st17 st7">balance speed and cost</tspan></text>
<rect x="135.73" y="157.53" class="st16" width="71.72" height="25.08"/>
<text transform="matrix(1 0 0 1 135.7309 162.5322)"><tspan x="0" y="0" class="st17 st7">The queue delegates new </tspan><tspan x="0" y="7.2" class="st17 st7">tasks to workers until </tspan><tspan x="0" y="14.4" class="st17 st7">queue is depleted</tspan></text>
<rect x="238.54" y="238.9" class="st16" width="71.72" height="25.08"/>
<text transform="matrix(1 0 0 1 238.5366 243.8999)"><tspan x="0" y="0" class="st17 st7">Verified mappings are </tspan><tspan x="0" y="7.2" class="st17 st7">saved to read-only storage </tspan><tspan x="0" y="14.4" class="st17 st7">for analysis</tspan></text>
<g>
	<path class="st18" d="M354.43,286.06v-21.71c0-1.63-0.85-2.96-1.89-2.96h-32.62c-1.04,0-1.89,1.32-1.89,2.96v21.71"/>
	<path class="st18" d="M318.03,285.95c0,3.48,8.15,6.31,18.2,6.31s18.2-2.82,18.2-6.31"/>
	<ellipse class="st18" cx="336.23" cy="262.48" rx="18.2" ry="6.31"/>
	<ellipse class="st18" cx="336.23" cy="255.81" rx="18.2" ry="6.31"/>
	<ellipse class="st18" cx="336.23" cy="249.5" rx="18.2" ry="6.31"/>
</g>
<g>
	<g>
		<polyline class="st14" points="306,144.93 336.23,144.93 336.23,226.9 		"/>
		<g>
			<path class="st15" d="M336.23,224.75l4.32-2.63l0.1,0.15l-2.8,7.05c-0.54,2.46-1.08,4.91-1.62,7.37
				c-0.54-2.46-1.08-4.91-1.62-7.37l-2.8-7.05l0.07-0.15L336.23,224.75z"/>
		</g>
	</g>
</g>
</svg>
